<svg xmlns="http://www.w3.org/2000/svg" width="900" height="600">
  <defs>
    <linearGradient id="grad" x1="0" y1="0" x2="1" y2="1">
      <stop offset="0%" stop-color="#0f172a"/>
      <stop offset="100%" stop-color="#111827"/>
    </linearGradient>
  </defs>
  <rect width="900" height="600" rx="40" fill="url(#grad)" />
  <rect x="65" y="65" width="770" height="470" rx="32" fill="#0f172a" stroke="#22c55e" stroke-width="5" />
  <rect x="115" y="125" width="250" height="320" rx="28" fill="#14203a" />
  <path d="M 115 125 L 365 125 L 365 165 L 115 165 Z" fill="#0d47a1" />
  <text x="240" y="168" text-anchor="middle" fill="#ffffff" font-family="Arial, Helvetica, sans-serif" font-size="24" font-weight="700">PDF</text>
  <path d="M 445 160 L 630 160 L 745 460 L 445 460 Z" fill="#111827" stroke="#294e76" stroke-width="4" />
  <path d="M 445 160 L 445 460 Z" stroke="#1e3560" stroke-width="4" />
  <path d="M 468 188 L 717 188" stroke="#4ade80" stroke-width="6" />
  <path d="M 468 228 L 717 228" stroke="#94a3b8" stroke-width="5" opacity="0.7" />
  <path d="M 468 268 L 680 268" stroke="#94a3b8" stroke-width="5" opacity="0.7" />
  <path d="M 468 308 L 700 308" stroke="#94a3b8" stroke-width="5" opacity="0.7" />
  <path d="M 468 348 L 717 348" stroke="#94a3b8" stroke-width="5" opacity="0.7" />
  <path d="M 468 388 L 700 388" stroke="#94a3b8" stroke-width="5" opacity="0.7" />
  <text x="120" y="520" fill="#94a3b8" font-family="Arial, Helvetica, sans-serif" font-size="24">Vista previa de certificado</text>
</svg>
